<svg xmlns="http://www.w3.org/2000/svg" viewBox="0 0 320 320" role="img" aria-labelledby="title desc">
  <title id="title">Fauteuil crapaud Napoleon III</title>
  <desc id="desc">Illustration de demonstration pour un fauteuil ancien capitonne.</desc>
  <defs>
    <linearGradient id="bg" x1="34" y1="18" x2="286" y2="300" gradientUnits="userSpaceOnUse">
      <stop offset="0" stop-color="#f1e2e6"/>
      <stop offset="1" stop-color="#b8748a"/>
    </linearGradient>
  </defs>
  <rect width="320" height="320" rx="36" fill="url(#bg)"/>
  <path d="M92 120c0-30 24-52 68-52s68 22 68 52v46H92z" fill="#8a3b52" stroke="#3a1622" stroke-width="6"/>
  <rect x="78" y="164" width="164" height="70" rx="18" fill="#a5445d" stroke="#3a1622" stroke-width="6"/>
  <path d="M120 96c4 12 4 24 0 36M160 90c4 14 4 28 0 42M200 96c-4 12-4 24 0 36" fill="none" stroke="#5c1f2d" stroke-width="4"/>
  <circle cx="120" cy="118" r="4" fill="#e9c8a0"/>
  <circle cx="160" cy="118" r="4" fill="#e9c8a0"/>
  <circle cx="200" cy="118" r="4" fill="#e9c8a0"/>
  <path d="M64 168c0-14 14-24 28-16v70H64zM256 168c0-14-14-24-28-16v70h28z" fill="#8a3b52" stroke="#3a1622" stroke-width="6"/>
  <rect x="84" y="240" width="18" height="34" rx="6" fill="#5c3320"/>
  <rect x="218" y="240" width="18" height="34" rx="6" fill="#5c3320"/>
</svg>
