<svg xmlns="http://www.w3.org/2000/svg" viewBox="0 0 320 320" role="img" aria-labelledby="title desc">
  <title id="title">Bergere Louis XVI cannelee</title>
  <desc id="desc">Illustration de demonstration pour une bergere ancienne garnie.</desc>
  <defs>
    <linearGradient id="bg" x1="34" y1="18" x2="286" y2="300" gradientUnits="userSpaceOnUse">
      <stop offset="0" stop-color="#eef1e5"/>
      <stop offset="1" stop-color="#8fae86"/>
    </linearGradient>
  </defs>
  <rect width="320" height="320" rx="36" fill="url(#bg)"/>
  <path d="M96 118c0-32 26-56 64-56s64 24 64 56v50H96z" fill="#4f7a52" stroke="#233524" stroke-width="6"/>
  <rect x="84" y="168" width="152" height="64" rx="16" fill="#5c8b5f" stroke="#233524" stroke-width="6"/>
  <path d="M124 92v50M160 86v56M196 92v50" fill="none" stroke="#2c4a2e" stroke-width="4"/>
  <path d="M70 172c0-14 14-24 26-16v66H70zM250 172c0-14-14-24-26-16v66h26z" fill="#4f7a52" stroke="#233524" stroke-width="6"/>
  <rect x="92" y="238" width="16" height="34" rx="6" fill="#4a301c"/>
  <rect x="212" y="238" width="16" height="34" rx="6" fill="#4a301c"/>
</svg>
