<svg xmlns="http://www.w3.org/2000/svg" viewBox="0 0 320 320" role="img" aria-labelledby="title desc">
  <title id="title">Dracaufeu EX PSA 10</title>
  <desc id="desc">Illustration de demonstration pour un produit carte gradee.</desc>
  <defs>
    <linearGradient id="bg" x1="32" y1="24" x2="288" y2="296" gradientUnits="userSpaceOnUse">
      <stop offset="0" stop-color="#fff4df"/>
      <stop offset="1" stop-color="#ffb36b"/>
    </linearGradient>
  </defs>
  <rect width="320" height="320" rx="36" fill="url(#bg)"/>
  <rect x="38" y="24" width="244" height="272" rx="18" fill="#fdf9f4" stroke="#181818" stroke-width="6"/>
  <rect x="54" y="46" width="212" height="182" rx="14" fill="#18253a"/>
  <path d="M84 190c18-52 52-90 84-90 25 0 49 18 66 58-9-5-22-7-38-3 8 12 11 26 8 42-20-13-42-17-66-13-3 10-11 18-24 26-4-7-5-14-4-20-10 1-19 1-26 0z" fill="#ff7f32"/>
  <circle cx="204" cy="122" r="13" fill="#ffd15b"/>
  <path d="M118 224h84" stroke="#ffcc66" stroke-width="10" stroke-linecap="round"/>
  <rect x="54" y="242" width="212" height="34" rx="12" fill="#2f3744"/>
  <text x="160" y="265" fill="#ffffff" font-size="20" font-family="Verdana, sans-serif" text-anchor="middle">PSA 10</text>
</svg>
