<svg xmlns="http://www.w3.org/2000/svg" viewBox="0 0 320 320" role="img" aria-labelledby="title desc">
  <title id="title">Horloge comtoise en bois sculpte</title>
  <desc id="desc">Illustration de demonstration pour une horloge comtoise ancienne.</desc>
  <defs>
    <linearGradient id="bg" x1="40" y1="22" x2="286" y2="298" gradientUnits="userSpaceOnUse">
      <stop offset="0" stop-color="#f0e6cf"/>
      <stop offset="1" stop-color="#a97b49"/>
    </linearGradient>
  </defs>
  <rect width="320" height="320" rx="36" fill="url(#bg)"/>
  <path d="M130 40h60l14 50h-88z" fill="#6f4626" stroke="#33200f" stroke-width="5"/>
  <rect x="118" y="90" width="84" height="86" rx="12" fill="#8a5b34" stroke="#33200f" stroke-width="6"/>
  <circle cx="160" cy="133" r="30" fill="#f4ecd8" stroke="#33200f" stroke-width="4"/>
  <line x1="160" y1="133" x2="160" y2="114" stroke="#33200f" stroke-width="4" stroke-linecap="round"/>
  <line x1="160" y1="133" x2="174" y2="140" stroke="#33200f" stroke-width="4" stroke-linecap="round"/>
  <circle cx="160" cy="133" r="3" fill="#33200f"/>
  <path d="M112 176c-10 40-10 70 0 100M208 176c10 40 10 70 0 100" fill="none" stroke="#33200f" stroke-width="0"/>
  <path d="M108 176h104l-14 100h-76z" fill="#7a4e2c" stroke="#33200f" stroke-width="6"/>
  <rect x="140" y="200" width="40" height="60" rx="8" fill="#f4ecd8" stroke="#33200f" stroke-width="3"/>
  <rect x="82" y="276" width="156" height="16" rx="6" fill="#33200f"/>
</svg>
