<svg xmlns="http://www.w3.org/2000/svg" viewBox="0 0 320 320" role="img" aria-labelledby="title desc">
  <title id="title">Commode Louis XV en marqueterie</title>
  <desc id="desc">Illustration de demonstration pour une commode ancienne en marqueterie.</desc>
  <defs>
    <linearGradient id="bg" x1="32" y1="24" x2="288" y2="296" gradientUnits="userSpaceOnUse">
      <stop offset="0" stop-color="#f3e6d3"/>
      <stop offset="1" stop-color="#c9a06a"/>
    </linearGradient>
  </defs>
  <rect width="320" height="320" rx="36" fill="url(#bg)"/>
  <path d="M92 108c8-24 34-40 68-40s60 16 68 40l6 30H86z" fill="#6b3f24"/>
  <rect x="80" y="138" width="160" height="120" rx="10" fill="#8a5a34" stroke="#3a2213" stroke-width="6"/>
  <rect x="96" y="154" width="128" height="28" rx="6" fill="#a9764a" stroke="#3a2213" stroke-width="3"/>
  <rect x="96" y="190" width="128" height="28" rx="6" fill="#a9764a" stroke="#3a2213" stroke-width="3"/>
  <rect x="96" y="226" width="128" height="24" rx="6" fill="#a9764a" stroke="#3a2213" stroke-width="3"/>
  <circle cx="160" cy="168" r="5" fill="#e9c88a"/>
  <circle cx="160" cy="204" r="5" fill="#e9c88a"/>
  <circle cx="160" cy="238" r="5" fill="#e9c88a"/>
  <path d="M84 258l-10 30h20l4-30zM236 258l4 30h20l-10-30z" fill="#3a2213"/>
  <rect x="70" y="288" width="180" height="10" rx="5" fill="#3a2213"/>
</svg>
