<svg xmlns="http://www.w3.org/2000/svg" viewBox="0 0 320 320" role="img" aria-labelledby="title desc">
  <title id="title">Bibliotheque marine en acajou</title>
  <desc id="desc">Illustration de demonstration pour une bibliotheque ancienne vitree.</desc>
  <defs>
    <linearGradient id="bg" x1="32" y1="24" x2="288" y2="296" gradientUnits="userSpaceOnUse">
      <stop offset="0" stop-color="#f1e3cd"/>
      <stop offset="1" stop-color="#9c6a3d"/>
    </linearGradient>
  </defs>
  <rect width="320" height="320" rx="36" fill="url(#bg)"/>
  <rect x="70" y="40" width="180" height="234" rx="10" fill="#6f4626" stroke="#33200f" stroke-width="6"/>
  <rect x="84" y="54" width="70" height="96" rx="6" fill="#dce7ef" stroke="#33200f" stroke-width="3"/>
  <rect x="166" y="54" width="70" height="96" rx="6" fill="#dce7ef" stroke="#33200f" stroke-width="3"/>
  <path d="M92 70h50M92 84h50M92 98h50M176 70h50M176 84h50M176 98h50" stroke="#8a6a3f" stroke-width="6"/>
  <rect x="84" y="160" width="152" height="24" rx="4" fill="#8a5b34" stroke="#33200f" stroke-width="3"/>
  <rect x="84" y="192" width="152" height="24" rx="4" fill="#8a5b34" stroke="#33200f" stroke-width="3"/>
  <rect x="84" y="224" width="152" height="24" rx="4" fill="#8a5b34" stroke="#33200f" stroke-width="3"/>
  <rect x="76" y="256" width="168" height="10" rx="5" fill="#33200f"/>
</svg>
