<svg xmlns="http://www.w3.org/2000/svg" viewBox="0 0 320 320" role="img" aria-labelledby="title desc">
  <title id="title">Bureau ecritoire a caissons</title>
  <desc id="desc">Illustration de demonstration pour un bureau ancien a caissons.</desc>
  <defs>
    <linearGradient id="bg" x1="32" y1="24" x2="288" y2="296" gradientUnits="userSpaceOnUse">
      <stop offset="0" stop-color="#f0e3ca"/>
      <stop offset="1" stop-color="#a97b49"/>
    </linearGradient>
  </defs>
  <rect width="320" height="320" rx="36" fill="url(#bg)"/>
  <rect x="70" y="120" width="180" height="24" rx="6" fill="#8a5b34" stroke="#33200f" stroke-width="6"/>
  <rect x="82" y="144" width="60" height="90" rx="6" fill="#6f4626" stroke="#33200f" stroke-width="4"/>
  <rect x="178" y="144" width="60" height="90" rx="6" fill="#6f4626" stroke="#33200f" stroke-width="4"/>
  <rect x="94" y="158" width="36" height="18" rx="3" fill="#9c6d3f"/>
  <rect x="94" y="184" width="36" height="18" rx="3" fill="#9c6d3f"/>
  <rect x="190" y="158" width="36" height="18" rx="3" fill="#9c6d3f"/>
  <rect x="190" y="184" width="36" height="18" rx="3" fill="#9c6d3f"/>
  <circle cx="112" cy="167" r="3" fill="#e9c88a"/>
  <circle cx="112" cy="193" r="3" fill="#e9c88a"/>
  <circle cx="208" cy="167" r="3" fill="#e9c88a"/>
  <circle cx="208" cy="193" r="3" fill="#e9c88a"/>
  <rect x="150" y="144" width="20" height="90" rx="4" fill="#4a2f19"/>
  <path d="M86 234l-6 30h20l4-30zM234 234l6 30h-20l-4-30z" fill="#33200f"/>
</svg>
