<svg xmlns="http://www.w3.org/2000/svg" viewBox="0 0 64 64">
	<defs>
		<linearGradient id="collector-gradient" x1="10" x2="54" y1="8" y2="56" gradientUnits="userSpaceOnUse">
			<stop offset="0" stop-color="#163329" />
			<stop offset="1" stop-color="#08110d" />
		</linearGradient>
	</defs>
	<rect width="64" height="64" rx="18" fill="#fbfdf9" />
	<rect x="8" y="8" width="48" height="48" rx="16" fill="url(#collector-gradient)" />
	<path
		d="M40.9 19.8a15.4 15.4 0 0 0-8.1-2.2c-8.8 0-15.8 6.7-15.8 15.6c0 9 6.8 15.6 15.8 15.6c3.4 0 6.2-.8 8.5-2.4l-2.4-4.7a10.3 10.3 0 0 1-5.6 1.5c-5.6 0-9.7-4.2-9.7-10c0-5.7 4.1-9.9 9.7-9.9c2.2 0 4 .5 5.6 1.5Z"
		fill="#fbfdf9"
	/>
	<circle cx="44" cy="20" r="5" fill="#98d7a9" />
</svg>
